HIERARCHY
ROOT Hips
{
	OFFSET 51.120300 -3.958674 85.689301
	CHANNELS 6 Xposition Yposition Zposition Xrotation Yrotation Zrotation
	JOINT spine
	{
		OFFSET 0.000000 -0.367607 6.392601
		CHANNELS 3 Xrotation Yrotation Zrotation
		JOINT spine1
		{
			OFFSET 0.000000 -0.000002 9.176109
			CHANNELS 3 Xrotation Yrotation Zrotation
			JOINT spine2
			{
				OFFSET 0.000000 -0.000001 8.792381
				CHANNELS 3 Xrotation Yrotation Zrotation
				JOINT Neck
				{
					OFFSET 0.000000 -1.076243 22.573692
					CHANNELS 3 Xrotation Yrotation Zrotation
					JOINT Head
					{
						OFFSET 0.000000 -0.000001 6.820114
						CHANNELS 3 Xrotation Yrotation Zrotation
						End Site
						{
							OFFSET 0.000000 5.444268 16.508499
						}
					}
				}
				JOINT RightShoulder
				{
					OFFSET -3.702209 0.515507 9.495087
					CHANNELS 3 Xrotation Yrotation Zrotation
					JOINT RightArm
					{
						OFFSET 0.000000 -0.000002 12.453697
						CHANNELS 3 Xrotation Yrotation Zrotation
						JOINT RightArmRoll
						{
							OFFSET 0.000000 -0.000001 6.286865
							CHANNELS 3 Xrotation Yrotation Zrotation
							JOINT RightForeArm
							{
								OFFSET 0.000000 -0.000003 18.311401
								CHANNELS 3 Xrotation Yrotation Zrotation
								JOINT RightForeArmRoll
								{
									OFFSET 0.000000 -0.000001 7.054825
									CHANNELS 3 Xrotation Yrotation Zrotation
									JOINT RightHand
									{
										OFFSET 0.000000 -0.000002 14.157501
										CHANNELS 3 Xrotation Yrotation Zrotation
										End Site
										{
											OFFSET 0.000000 0.000000 0.100006
										}
									}
								}
							}
						}
					}
				}
				JOINT LeftShoulder
				{
					OFFSET 3.702209 0.515507 9.495087
					CHANNELS 3 Xrotation Yrotation Zrotation
					JOINT LeftArm
					{
						OFFSET 0.000000 -0.000002 12.453697
						CHANNELS 3 Xrotation Yrotation Zrotation
						JOINT LeftArmRoll
						{
							OFFSET 0.000000 -0.000001 6.286865
							CHANNELS 3 Xrotation Yrotation Zrotation
							JOINT LeftForeArm
							{
								OFFSET 0.000000 -0.000003 18.311401
								CHANNELS 3 Xrotation Yrotation Zrotation
								JOINT LeftForeArmRoll
								{
									OFFSET 0.000000 -0.000001 7.054825
									CHANNELS 3 Xrotation Yrotation Zrotation
									JOINT LeftHand
									{
										OFFSET 0.000000 -0.000002 14.157501
										CHANNELS 3 Xrotation Yrotation Zrotation
										End Site
										{
											OFFSET 0.000000 0.000000 0.100006
										}
									}
								}
							}
						}
					}
				}
			}
		}
	}
	JOINT RightUpLeg
	{
		OFFSET -5.666149 0.871610 -1.039032
		CHANNELS 3 Xrotation Yrotation Zrotation
		JOINT RightUpLegRoll
		{
			OFFSET 0.000000 -0.000003 16.600502
			CHANNELS 3 Xrotation Yrotation Zrotation
			JOINT RightLeg
			{
				OFFSET 0.000000 0.000003 -20.557198
				CHANNELS 3 Xrotation Yrotation Zrotation
				JOINT RightLegRoll
				{
					OFFSET 0.000000 -0.000003 20.624397
					CHANNELS 3 Xrotation Yrotation Zrotation
					JOINT RightFoot
					{
						OFFSET 0.000000 -0.000003 17.166405
						CHANNELS 3 Xrotation Yrotation Zrotation
						JOINT RightToeBase
						{
							OFFSET 0.000000 -0.000002 14.350204
							CHANNELS 3 Xrotation Yrotation Zrotation
							End Site
							{
								OFFSET 0.006081 0.801059 6.949707
							}
						}
					}
				}
			}
		}
	}
	JOINT LeftUpLeg
	{
		OFFSET 5.666149 0.871610 -1.039032
		CHANNELS 3 Xrotation Yrotation Zrotation
		JOINT LeftUpLegRoll
		{
			OFFSET 0.000000 -0.000003 16.600601
			CHANNELS 3 Xrotation Yrotation Zrotation
			JOINT LeftLeg
			{
				OFFSET 0.000000 -0.000003 20.557098
				CHANNELS 3 Xrotation Yrotation Zrotation
				JOINT LeftLegRoll
				{
					OFFSET 0.000000 -0.000003 20.815094
					CHANNELS 3 Xrotation Yrotation Zrotation
					JOINT LeftFoot
					{
						OFFSET 0.000000 -0.000003 16.975693
						CHANNELS 3 Xrotation Yrotation Zrotation
						JOINT LeftToeBase
						{
							OFFSET 0.000000 -0.000002 14.350204
							CHANNELS 3 Xrotation Yrotation Zrotation
							End Site
							{
								OFFSET -0.027260 0.801060 6.949707
							}
						}
					}
				}
			}
		}
	}
}
MOTION
Frames: 11
Frame Time: 0.041667
50.906296 -3.924734 85.549896 -1.126708 -0.407707 -0.160841 -1.572580 0.196459 -0.215047 0.869181 0.398653 -0.420641 2.514260 0.393587 -0.425352 12.116553 6.187568 0.254530 13.661295 -3.962836 0.427090 -18.318578 -18.151525 -21.531131 -117.546695 -136.525482 -57.804608 -0.000000 0.000001 -0.000003 48.713934 7.243825 0.190641 -0.000005 -0.000005 -3.001340 -5.000240 -7.998764 0.000179 -21.483855 15.310151 26.643496 -119.203740 136.065469 71.501958 0.000000 0.000001 0.000003 35.870654 -15.460610 1.013761 0.000005 0.000002 3.008110 -5.000233 7.998822 -0.000154 0.042685 -173.716996 1.697520 -179.999991 0.000006 -1.073004 174.116931 -3.190146 -0.568539 0.000001 0.000002 0.038679 68.950753 6.710609 2.602800 25.463422 -7.355621 0.000005 0.017410 175.599997 1.090595 -0.000005 -0.000004 -1.066660 -5.958381 0.971650 0.549288 -0.000003 0.000003 -0.018839 69.281812 -6.605080 -2.869781 25.457665 7.355618 -0.001052 
50.909996 -3.915785 85.548996 -1.124201 -0.408801 -0.159446 -1.572268 0.196166 -0.215094 0.869704 0.398448 -0.420522 2.514780 0.393386 -0.425246 12.121253 6.186501 0.258398 13.640145 -3.957251 0.429356 -18.321702 -18.232772 -21.536290 -117.503979 -136.399725 -57.925591 -0.000000 -0.000001 -0.000003 48.258616 7.353286 0.131703 -0.000001 -0.000005 -3.001341 -5.000240 -7.998762 0.000179 -21.492860 15.365588 26.655636 -119.179274 135.961978 71.733133 -0.000001 0.000001 0.000004 35.282466 -15.473672 1.030205 -0.000001 0.000003 3.008112 -5.000230 7.998823 -0.000154 0.039924 -173.715015 1.698599 -179.999991 0.000006 -1.073004 174.117122 -3.192130 -0.568731 0.000001 0.000002 0.038634 68.950043 6.710354 2.603496 25.463423 -7.355624 0.000006 0.013495 175.607005 1.106597 -0.000005 -0.000005 -1.066590 -5.959050 0.954573 0.549018 -0.000003 0.000003 -0.018671 69.281744 -6.601429 -2.877916 25.457665 7.355617 -0.001051 
50.905796 -3.920193 85.550499 -1.121856 -0.409677 -0.157968 -1.571921 0.195837 -0.215165 0.870249 0.398185 -0.420460 2.515330 0.393125 -0.425195 12.126552 6.184953 0.262272 13.618494 -3.951099 0.431589 -18.324156 -18.315241 -21.540494 -117.461427 -136.272724 -58.047592 0.000000 0.000000 -0.000001 47.804026 7.461584 0.074223 -0.000002 -0.000003 -3.001341 -5.000241 -7.998763 0.000178 -21.501663 15.421701 26.667487 -119.154221 135.857804 71.965516 -0.000002 0.000002 0.000004 34.696258 -15.482207 1.045038 0.000003 0.000002 3.008102 -5.000227 7.998823 -0.000153 0.036490 -173.714004 1.699475 -179.999991 0.000005 -1.073004 174.115606 -3.193127 -0.567922 0.000001 0.000002 0.038590 68.950206 6.709835 2.604789 25.463427 -7.355622 0.000005 0.008677 175.614996 1.122107 -0.000005 -0.000004 -1.066500 -5.962513 0.937888 0.548856 -0.000003 0.000003 -0.018592 69.283315 -6.597631 -2.886325 25.457665 7.355617 -0.001053 
50.905697 -3.911825 85.548889 -1.119758 -0.410373 -0.156407 -1.571529 0.195488 -0.215252 0.870860 0.397892 -0.420438 2.515939 0.392834 -0.425183 12.132239 6.182905 0.266129 13.596420 -3.944438 0.433762 -18.326361 -18.398896 -21.544167 -117.418356 -136.144890 -58.169429 0.000000 0.000000 -0.000003 47.350765 7.568579 0.018420 -0.000001 -0.000005 -3.001330 -5.000240 -7.998760 0.000178 -21.510127 15.478412 26.678666 -119.128608 135.752332 72.198931 -0.000001 0.000001 0.000004 34.112376 -15.486009 1.057930 0.000001 0.000003 3.008102 -5.000227 7.998823 -0.000152 0.032556 -173.711996 1.700225 -179.999991 0.000006 -1.073004 174.112505 -3.195094 -0.567302 0.000001 0.000002 0.038546 68.951129 6.709084 2.606592 25.463427 -7.355623 0.000006 0.003249 175.620993 1.136782 -0.000005 -0.000004 -1.066390 -5.968336 0.922003 0.548793 -0.000002 0.000003 -0.018591 69.286245 -6.593809 -2.894751 25.457664 7.355616 -0.001051 
50.899197 -3.915974 85.553596 -1.118009 -0.410924 -0.154770 -1.571061 0.195138 -0.215341 0.871583 0.397597 -0.420441 2.516659 0.392541 -0.425195 12.138314 6.180365 0.269916 13.574047 -3.937312 0.435844 -18.328509 -18.483614 -21.547748 -117.374205 -136.016647 -58.289845 -0.000000 -0.000001 -0.000004 46.899012 7.674262 -0.035581 -0.000002 -0.000005 -3.001330 -5.000242 -7.998764 0.000178 -21.518274 15.535718 26.689389 -119.102148 135.645276 72.432804 -0.000002 0.000001 0.000004 33.531523 -15.485321 1.069039 0.000002 0.000003 3.008100 -5.000235 7.998823 -0.000156 0.028275 -173.710999 1.700917 -179.999991 0.000005 -1.073004 174.107901 -3.196060 -0.566664 0.000001 0.000002 0.038501 68.952754 6.708201 2.608831 25.463423 -7.355623 0.000006 -0.002518 175.627004 1.150332 -0.000005 -0.000004 -1.066270 -5.976112 0.907325 0.548822 -0.000002 0.000003 -0.018658 69.290452 -6.589993 -2.902999 25.457665 7.355618 -0.001052 
50.900795 -3.913081 85.553596 -1.116711 -0.411367 -0.153059 -1.570498 0.194800 -0.215422 0.872464 0.397330 -0.420453 2.517540 0.392275 -0.425215 12.144583 6.177327 0.273601 13.551264 -3.929792 0.437796 -18.330703 -18.569297 -21.551431 -117.328416 -135.888348 -58.407885 0.000000 0.000002 -0.000003 46.449303 7.778602 -0.087656 0.000000 -0.000005 -3.001331 -5.000239 -7.998763 0.000178 -21.525973 15.593443 26.699433 -119.074581 135.536102 72.666813 -0.000002 0.000001 0.000002 32.954010 -15.479958 1.078070 0.000003 0.000003 3.008100 -5.000227 7.998823 -0.000155 0.023818 -173.710002 1.701618 -179.999991 0.000005 -1.073004 174.101904 -3.198022 -0.567204 0.000001 0.000002 0.038457 68.955158 6.707126 2.611484 25.463420 -7.355622 0.000005 -0.008332 175.633001 1.162415 -0.000005 -0.000004 -1.066120 -5.985401 0.894260 0.548936 -0.000003 0.000003 -0.018780 69.295445 -6.586363 -2.910939 25.457664 7.355615 -0.001052 
50.905895 -3.908793 85.551598 -1.115949 -0.411741 -0.151277 -1.569828 0.194491 -0.215485 0.873549 0.397118 -0.420457 2.518619 0.392064 -0.425227 12.150941 6.173777 0.277145 13.528387 -3.921913 0.439600 -18.333136 -18.655729 -21.555525 -117.280263 -135.760460 -58.522324 0.000000 -0.000000 -0.000003 46.002014 7.881554 -0.137716 -0.000001 -0.000005 -3.001329 -5.000236 -7.998761 0.000178 -21.533215 15.651500 26.708671 -119.045881 135.424442 72.900815 -0.000002 0.000001 0.000005 32.380216 -15.469986 1.084921 -0.000000 0.000002 3.008099 -5.000233 7.998823 -0.000154 0.019342 -173.709005 1.702419 -179.999991 0.000005 -1.073004 174.094637 -3.198973 -0.566715 0.000002 0.000002 0.038412 68.958252 6.705878 2.614463 25.463425 -7.355624 0.000005 -0.013915 175.638000 1.172719 -0.000005 -0.000004 -1.065940 -5.995786 0.883215 0.549131 -0.000002 0.000003 -0.018947 69.301148 -6.582986 -2.918279 25.457667 7.355617 -0.001051 
50.904495 -3.914944 85.554001 -1.115828 -0.412080 -0.149429 -1.569016 0.194228 -0.215516 0.874883 0.396990 -0.420438 2.519960 0.391938 -0.425216 12.157287 6.169728 0.280508 13.505389 -3.913731 0.441222 -18.336229 -18.742963 -21.560587 -117.228873 -135.633418 -58.631846 0.000000 0.000001 -0.000002 45.557543 7.983040 -0.185589 -0.000000 -0.000004 -3.001330 -5.000238 -7.998763 0.000179 -21.539893 15.709894 26.717072 -119.015746 135.309872 73.134237 -0.000001 0.000002 0.000005 31.810885 -15.455415 1.089615 0.000001 0.000003 3.008100 -5.000234 7.998822 -0.000154 0.015014 -173.706997 1.703374 -179.999991 0.000005 -1.073004 174.086195 -3.199915 -0.567289 0.000001 0.000002 0.038367 68.961845 6.704558 2.617700 25.463420 -7.355622 0.000005 -0.018988 175.642003 1.180924 -0.000005 -0.000004 -1.065720 -6.006842 0.874595 0.549402 -0.000003 0.000003 -0.019147 69.307268 -6.579943 -2.924860 25.457665 7.355617 -0.001051 
50.906197 -3.911183 85.554497 -1.116450 -0.412423 -0.147517 -1.568058 0.194027 -0.215506 0.876512 0.396975 -0.420382 2.521579 0.391924 -0.425165 12.163416 6.165156 0.283658 13.482395 -3.905304 0.442631 -18.339975 -18.830809 -21.566872 -117.173630 -135.507702 -58.735242 0.000001 0.000000 -0.000004 45.116422 8.083088 -0.231303 -0.000001 -0.000006 -3.001330 -5.000242 -7.998765 0.000179 -21.546100 15.768523 26.724522 -118.984067 135.192011 73.366832 -0.000001 0.000002 0.000003 31.246251 -15.436084 1.091865 -0.000001 0.000002 3.008099 -5.000230 7.998822 -0.000157 0.010991 -173.705999 1.704554 -179.999991 0.000006 -1.073004 174.076674 -3.201845 -0.568025 0.000001 0.000002 0.038322 68.966155 6.703143 2.621077 25.463420 -7.355623 0.000006 -0.023267 175.644994 1.186697 -0.000005 -0.000005 -1.065470 -6.018145 0.868810 0.549744 -0.000003 0.000003 -0.019370 69.313627 -6.577333 -2.930503 25.457664 7.355617 -0.001051 
50.906197 -3.913581 85.552490 -1.117900 -0.412804 -0.145545 -1.566919 0.193904 -0.215441 0.878481 0.397100 -0.420271 2.523550 0.392052 -0.425060 12.169335 6.160061 0.286535 13.459399 -3.896679 0.443793 -18.344778 -18.919134 -21.574764 -117.113948 -135.383734 -58.831527 0.000000 -0.000000 -0.000004 44.679027 8.181541 -0.274651 0.000002 -0.000005 -3.001330 -5.000239 -7.998763 0.000178 -21.551518 15.827329 26.731001 -118.950818 135.070420 73.598403 -0.000002 0.000001 0.000003 30.686995 -15.412124 1.091723 0.000003 0.000003 3.008102 -5.000232 7.998823 -0.000154 0.007440 -173.704005 1.706045 -179.999991 0.000006 -1.073004 174.066196 -3.203781 -0.567807 0.000001 0.000002 0.038277 68.970957 6.701655 2.624608 25.463425 -7.355622 0.000005 -0.026469 175.648000 1.189739 -0.000005 -0.000005 -1.065180 -6.029272 0.866264 0.550157 -0.000003 0.000003 -0.019605 69.319829 -6.575270 -2.934959 25.457665 7.355618 -0.001052 
50.907696 -3.911981 85.555099 -1.120071 -0.413261 -0.143511 -1.565619 0.193837 -0.215306 0.880708 0.397361 -0.420091 2.525779 0.392313 -0.424883 12.175646 6.154694 0.289147 13.435996 -3.887962 0.444729 -18.350236 -19.008073 -21.583688 -117.050195 -135.260873 -58.922232 -0.000001 -0.000001 -0.000004 44.244118 8.278253 -0.316188 0.000000 -0.000005 -3.001330 -5.000242 -7.998764 0.000179 -21.556475 15.886376 26.736424 -118.917063 134.945755 73.830213 -0.000000 0.000001 0.000004 30.131892 -15.382276 1.090305 0.000002 0.000002 3.008101 -5.000230 7.998823 -0.000156 0.003472 -173.701997 1.707870 -179.999991 0.000005 -1.071993 174.053246 -3.204697 -0.568634 0.000002 0.000002 0.038232 68.977042 6.699862 2.628907 25.463422 -7.355623 0.000005 -0.029334 175.648997 1.189936 -0.000005 -0.000004 -1.064840 -6.042035 0.867183 0.550701 -0.000002 0.000003 -0.019913 69.327137 -6.573686 -2.938335 25.457665 7.355618 -0.001053 
